<?xml version="1.0" encoding="UTF-8"?><svg id="a" xmlns="http://www.w3.org/2000/svg" viewBox="0 0 201.4 122.24"><defs><style>.b{fill:#010101;}</style></defs><path class="b" d="M30.96,28.02v-8.75c0-.68-.1-1.2-.1-1.2,0,0,.61,.1,1.2,.1h6.6c5.03,0,7.97,.79,7.97,5.35,0,2.95-1.83,5.61-7.77,5.61h-6.8c-.59,0-1.19,.07-1.19,.07,0,0,.08-.56,.08-1.18Zm0,20.11v-10.13c0-.68-.08-1.18-.08-1.18,0,0,.59,.08,1.18,.08h5.59c4.45,0,9.89,0,9.89,6.16,0,4.56-3.9,6.17-9.15,6.17h-6.33c-.6,0-1.17,.08-1.17,.08,0,0,.07-.6,.07-1.18ZM14.96,12.72V54.88c0,1.37,.07,1.86-.9,2.46-.94,.59-1.92,.69-3.48,.95h-.03c-.16,.04-.13,.63,.03,.63H44.7c14.38,0,20.43-5.7,20.43-14.61,0-6.58-3.07-10.6-9.14-12.11-.1-.03-.11-.16,0-.2,3.87-1.21,7.42-4.01,7.42-10.86,0-9.31-6.28-12.44-19.97-12.44H10.6c-.16,0-.19,.59-.03,.62,.02,0,.03,0,.03,0,1.57,.27,2.54,.37,3.48,.96,.97,.59,.89,1.07,.89,2.44Z"/><path class="b" d="M186.8,12.72c0-1.37-.06-1.85,.89-2.44,.96-.58,1.93-.69,3.48-.96,0,0,.02,0,.03,0,.16-.03,.13-.62-.03-.62h-25.16c-.15,0-.19,.59-.02,.62h.02c1.59,.2,2.33,.38,3.28,.96,.98,.59,.89,1.07,.89,2.45v25.33c0,5.77-3.3,10.22-9.87,10.22s-9.9-4.45-9.9-10.22V12.73c0-1.37-.06-1.86,.9-2.45,.94-.58,1.74-.73,3.28-.96,0,0,0,0,.02,0,.17-.03,.13-.62-.02-.62h-23.75c-.18,0-.14,.59,0,.62,.02,0,.04,0,.04,0,.87,.05,1.47,.11,1.99,.57,.79,.66,.93,1.46,.93,2.83v24.91c-.01,12,6.56,22.2,26.51,22.2s26.49-10.2,26.49-22.2V12.72Z"/><path class="b" d="M110.57,58.92c.15,0,.19-.58,.04-.62-.02,0-.03,0-.03,0-1.56-.26-2.53-.36-3.48-.95-.97-.6-.89-1.09-.89-2.45v-16l17.4-25.83c.95-1.41,1.57-2.15,2.35-2.8,.13-.11,.46-.33,.64-.46,.72-.36,1.01-.45,1.88-.48,0,0,.01,0,.02,0,.17-.01,.22-.61,.03-.61h-23.45c-.2,0-.17,.61,0,.62,0,0,.02,0,.02,0,1.13,0,2.54,.01,2.31,1.65-.13,1.57-6.89,11.36-9.3,15.07-.34,.54-.61,1.08-.73,1.75-.08-.67-.5-1.34-.78-1.74-3.36-5.01-9.1-13.11-9.27-15.09-.14-1.69,1.18-1.65,2.32-1.65,0,0,0,0,.03,0,.16,0,.22-.62,.03-.62h-24.64c-.14,0-.13,.57,.01,.62,.01,0,.03,0,.03,0,1.05,.12,1.62,.04,2.86,.64,.14,.07,.49,.3,.62,.41,.79,.66,1.26,1.27,2.22,2.68l17.37,25.72v16.11c0,1.37,.09,1.86-.88,2.46-.95,.59-1.92,.69-3.48,.95,0,0-.02,0-.03,0-.17,.04-.14,.62,.03,.62h26.74Z"/><g><path class="b" d="M61.54,108.42c-3.35,3.37-7.06,4.82-13.3,4.82-2.15,0-5.61-.09-7.41-.09s-4.04,.09-6.19,.09c-.15,0-.2-.57,.05-.64,1.89-.18,2.73-.48,3.32-.81,.64-.35,1.02-1.17,1.02-10.77v-7.12c0-9.6-.38-10.48-1.02-10.77-.59-.34-1.42-.62-3.32-.83-.25-.04-.2-.62-.05-.62,2.15,0,4.38,.09,6.19,.09s6.29-.09,8.48-.09c9.8,0,16.86,6.56,16.86,15.4,0,4.24-1.71,8.37-4.63,11.34Zm-13.74-25.14c-2.92,0-4.14,.39-4.49,.82-.29,.39-.72,2.54-.72,9.65v7.27c0,6.24,.44,8.68,1.07,9.36,.88,.91,2,1.25,4.53,1.25,9.55,0,13.94-4.52,13.94-13.68,0-7.46-5.02-14.67-14.33-14.67Z"/><path class="b" d="M93.61,113.25c-.14,0-.2-.57,0-.64,1.52-.14,2.44-.43,2.44-1.16,0-.82-.63-3.02-3.41-10.03h-10.09c-2.3,6.28-2.82,8.66-2.82,9.7,0,.86,.68,1.32,2.77,1.49,.2,.06,.15,.64,0,.64h-9.99c-.15,0-.24-.57,0-.64,1.46-.14,2.34-.43,3.07-.92,.49-.39,1.36-1.07,4.87-10.67l2.59-7.12c1.51-4.08,3.12-8.33,4.33-12.13,.09-.34,1.56-.34,1.66,0,1.47,4.23,2.73,7.7,4.43,12.13l2.78,7.12c3.8,9.6,4.44,10.33,5.12,10.77,.82,.53,1.57,.68,2.93,.81,.19,.06,.15,.64,0,.64h-10.68Zm-6.04-25.58l-4.29,11.74h8.62l-4.33-11.74Z"/><path class="b" d="M133.43,113.25c-.2,0-.2-.57,.05-.64,1.9-.18,2.73-.48,3.31-.81,.58-.35,1.02-1.17,1.02-10.77v-3.03h-18.41v3.03c0,9.6,.43,10.42,1.02,10.77,.58,.34,1.41,.64,3.31,.81,.25,.06,.25,.64,.1,.64h-12.38c-.16,0-.2-.57,.04-.64,1.9-.18,2.73-.48,3.32-.81,.63-.35,1.03-1.17,1.03-10.77v-7.12c0-9.6-.4-10.48-1.03-10.77-.58-.34-1.42-.62-3.32-.83-.24-.04-.2-.62-.04-.62h12.38c.14,0,.14,.58-.1,.62-1.9,.21-2.73,.49-3.31,.83-.58,.29-1.02,1.17-1.02,10.77v2.28h18.41v-2.28c0-9.6-.44-10.48-1.02-10.77-.58-.34-1.41-.62-3.31-.83-.25-.04-.25-.62-.05-.62h12.34c.19,0,.19,.58-.04,.62-1.91,.21-2.73,.49-3.32,.83-.58,.29-1.02,1.17-1.02,10.77v7.12c0,9.6,.44,10.42,1.02,10.77,.59,.34,1.41,.64,3.32,.81,.24,.06,.24,.64,.04,.64h-12.34Z"/><path class="b" d="M171.89,113.55c-9.27,0-15.89-6.88-15.89-15.7s6.63-16.46,16.58-16.46c9.29,0,15.87,6.86,15.87,15.7,0,8.37-6.58,16.47-16.56,16.47Zm-.25-30.37c-8.72,0-11.59,6.98-11.59,13.26,0,7.95,5.01,15.3,12.81,15.3,8.67,0,11.54-6.97,11.54-13.26,0-7.94-4.95-15.3-12.75-15.3Z"/></g><path class="b" d="M10.5,69.87c-.22,0-.41,.19-.41,.41s.18,.41,.41,.41H185.74c.23,0,.42-.19,.42-.41s-.2-.41-.42-.41H10.5Z"/><path class="b" d="M10.47,113.25c-.15,0-.15-.59,.05-.64,1.9-.19,3.17-.49,3.75-.83,.59-.33,1.02-1.16,1.02-10.75v-7.11c0-9.6-.43-10.48-1.02-10.77-.58-.34-1.86-.62-3.75-.83-.2-.05-.2-.62-.05-.62h13.16c.14,0,.19,.57-.06,.62-1.89,.21-3.11,.49-3.7,.83-.64,.29-1.07,1.17-1.07,10.77v7.11c0,9.59,.43,10.42,1.07,10.75,.58,.35,1.8,.65,3.7,.83,.25,.04,.2,.64,.06,.64H10.47Z"/></svg>